<svg width="20" height="20" viewBox="0 0 20 20" fill="none" xmlns="http://www.w3.org/2000/svg">
<g clip-path="url(#clip0_315_13280)">
<path d="M16.7148 3.37109C17.3737 3.37183 18.0058 3.63376 18.4717 4.09961C18.9375 4.56546 19.1995 5.19763 19.2002 5.85645V14.1436C19.1994 14.8022 18.9373 15.4336 18.4717 15.8994C18.0058 16.3653 17.3737 16.6282 16.7148 16.6289H3.28516C2.62634 16.6282 1.99417 16.3653 1.52832 15.8994C1.0627 15.4336 0.800556 14.8022 0.799805 14.1436V5.85645C0.800545 5.19763 1.06247 4.56546 1.52832 4.09961C1.99417 3.63376 2.62634 3.37183 3.28516 3.37109H16.7148ZM2.05762 14.1426L2.06348 14.2646C2.09171 14.5454 2.21579 14.8094 2.41699 15.0107C2.64719 15.2409 2.95961 15.3706 3.28516 15.3711H16.7148L16.8359 15.3652C17.117 15.337 17.3815 15.2122 17.583 15.0107C17.8129 14.7806 17.9419 14.4688 17.9424 14.1436V8.05664H2.05762V14.1426ZM3.16406 4.63477C2.88301 4.66297 2.61847 4.78681 2.41699 4.98828C2.18679 5.21848 2.05807 5.5309 2.05762 5.85645V6.7998H17.9424V5.85645L17.9365 5.73535C17.9083 5.4543 17.7845 5.18976 17.583 4.98828C17.3815 4.78681 17.117 4.66297 16.8359 4.63477L16.7148 4.62891H3.28516L3.16406 4.63477Z" fill="white" stroke="white" stroke-width="0.4"/>
<path d="M8.07129 13.001H4.07129C3.93868 13.001 3.8115 13.0537 3.71774 13.1474C3.62397 13.2412 3.57129 13.3684 3.57129 13.501C3.57129 13.6336 3.62397 13.7608 3.71774 13.8545C3.8115 13.9483 3.93868 14.001 4.07129 14.001H8.07129C8.2039 14.001 8.33107 13.9483 8.42484 13.8545C8.51861 13.7608 8.57129 13.6336 8.57129 13.501C8.57129 13.3684 8.51861 13.2412 8.42484 13.1474C8.33107 13.0537 8.2039 13.001 8.07129 13.001Z" fill="white"/>
</g>
<defs>
<clipPath id="clip0_315_13280">
<rect width="20" height="20" fill="white"/>
</clipPath>
</defs>
</svg>
