   <svg width="18" height="18" viewBox="0 0 18 18" fill="none" xmlns="http://www.w3.org/2000/svg" aria-hidden="true">
        <path d="M4.0957 16.3486C4.09588 15.4467 4.82662 14.716 5.72848 14.7158C6.63048 14.7158 7.36204 15.4466 7.36222 16.3486C7.36222 17.2507 6.63059 17.9823 5.72848 17.9823C4.82652 17.9822 4.0957 17.2506 4.0957 16.3486Z" fill="#22354A" />
        <path d="M13.0791 16.3486C13.0793 15.4467 13.81 14.716 14.7119 14.7158C15.6139 14.7158 16.3454 15.4466 16.3456 16.3486C16.3456 17.2507 15.614 17.9823 14.7119 17.9823C13.8099 17.9822 13.0791 17.2506 13.0791 16.3486Z" fill="#22354A" />
        <path d="M2.50286 0.0556641L2.64451 0.0681061C2.96703 0.124891 3.23043 0.371504 3.30106 0.700736L4.03706 4.13856H17.2361C17.4838 4.13862 17.7176 4.25167 17.8726 4.44483C18.0276 4.63804 18.0871 4.89116 18.0334 5.13297L16.6858 11.2009L16.6849 11.1999C16.5649 11.7442 16.2634 12.2314 15.8292 12.581C15.3949 12.9305 14.8544 13.1218 14.2969 13.1227H6.30821V13.1217C5.74485 13.13 5.19535 12.9448 4.75295 12.5953C4.3059 12.242 3.99578 11.7436 3.87627 11.1865L1.84152 1.68844H0.869123C0.418068 1.68844 0.0527344 1.32311 0.0527344 0.872053C0.0527344 0.420998 0.418068 0.0556641 0.869123 0.0556641H2.50286ZM5.47363 10.8439L5.51479 10.9798C5.56763 11.1102 5.65388 11.2255 5.76554 11.3138C5.91455 11.4315 6.10017 11.4941 6.29002 11.4899C6.29601 11.4898 6.30221 11.4889 6.30821 11.4889H14.2941C14.4798 11.4886 14.6604 11.4254 14.8052 11.309C14.9499 11.1924 15.0504 11.0292 15.0904 10.8477L15.0913 10.8467L16.2178 5.7723H4.38735L5.47363 10.8439Z" fill="#22354A" />
    </svg>