    <svg width="18" height="18" viewBox="0 0 18 18" fill="none" xmlns="http://www.w3.org/2000/svg" aria-hidden="true">
        <path d="M17.958 9.50175L15.6847 3.00675C15.3698 2.10525 14.5155 1.49925 13.5607 1.49925H9.75V0.75C9.75 0.336 9.41475 0 9 0C8.58525 0 8.25 0.336 8.25 0.75V1.5H4.43925C3.4845 1.5 2.63025 2.106 2.31525 3.00675L0.042 9.50175C0.01425 9.58125 0 9.97575 0 9.97575C0 11.8552 1.40325 13.401 3.195 13.4948C4.12575 13.5465 5.0205 13.2165 5.6985 12.573C6.3675 11.9385 6.75 11.046 6.75 10.125C6.75 10.125 6.73425 9.576 6.70425 9.4935L4.3455 3.006C4.37625 3.00225 4.40775 3 4.43925 3H8.25V16.5H3.75C3.33525 16.5 3 16.836 3 17.25C3 17.664 3.33525 18 3.75 18H14.25C14.6648 18 15 17.664 15 17.25C15 16.836 14.6648 16.5 14.25 16.5H9.75V3H13.5607C13.5922 3 13.6237 3.0015 13.6545 3.006L11.295 9.4935C11.265 9.57525 11.2492 10.125 11.2492 10.125C11.2492 11.0468 11.6325 11.9385 12.3007 12.573C12.9345 13.1745 13.6718 13.4948 14.805 13.4948C16.5982 13.4948 17.9993 11.8552 17.9993 9.97575C17.9993 9.97575 17.9858 9.58125 17.958 9.50175ZM3.273 11.9977C2.46225 11.955 1.7835 11.3212 1.5735 10.5H5.2125C5.1375 10.8743 4.95 11.2155 4.66575 11.4847C4.28925 11.8425 3.79275 12.024 3.27375 11.997L3.273 11.9977ZM4.929 9H1.80675L3.33825 4.62525L4.929 9ZM14.6617 4.62525L16.1932 9H13.071L14.6617 4.62525ZM14.7277 11.9977C14.2117 12.0247 13.7123 11.8433 13.335 11.4855C13.0508 11.2155 12.8633 10.8743 12.7882 10.5008H16.4272C16.2173 11.3212 15.5393 11.9558 14.7285 11.9985L14.7277 11.9977Z" fill="#22354A" />
    </svg>