    <svg width="18" height="18" viewBox="0 0 18 18" fill="none" xmlns="http://www.w3.org/2000/svg" aria-hidden="true">
        <path d="M14.3996 17.1007V15.3003C14.3995 14.5844 14.1158 13.8975 13.6096 13.3912C13.1032 12.8848 12.4156 12.6001 11.6995 12.6001H6.29928C5.58329 12.6002 4.8965 12.8849 4.39022 13.3912C3.88393 13.8975 3.59926 14.5843 3.59917 15.3003V17.1007C3.59917 17.5978 3.19656 18.0004 2.69949 18.0004C2.20241 18.0004 1.7998 17.5978 1.7998 17.1007V15.3003C1.7999 14.1069 2.2733 12.962 3.11716 12.1181C3.96102 11.2743 5.10588 10.8009 6.29928 10.8008H11.6995C12.8928 10.8008 14.0377 11.2744 14.8816 12.1181C15.7255 12.962 16.1999 14.1069 16.2 15.3003V17.1007C16.2 17.5976 15.7972 18.0002 15.3003 18.0004C14.8033 18.0004 14.3996 17.5978 14.3996 17.1007Z" fill="#22354A" />
        <path d="M11.6996 4.49947C11.6994 3.00841 10.4906 1.79937 8.99947 1.79937C7.50852 1.79956 6.29956 3.00852 6.29937 4.49947C6.29937 5.99058 7.50841 7.19939 8.99947 7.19958C10.4907 7.19958 11.6996 5.9907 11.6996 4.49947ZM13.5 4.49947C13.5 6.98485 11.4849 9 8.99947 9C6.51426 8.99981 4.5 6.98473 4.5 4.49947C4.50019 2.01437 6.51437 0.000189954 8.99947 0C11.4847 0 13.4998 2.01426 13.5 4.49947Z" fill="#22354A" />
    </svg>