<svg width="28" height="20" viewBox="0 0 28 20" fill="none" xmlns="http://www.w3.org/2000/svg">
<path d="M0 9.54493C0 9.26365 0.111737 8.9939 0.31063 8.79501C0.509523 8.59611 0.779279 8.48438 1.06056 8.48438H26.5139C26.7952 8.48438 27.0649 8.59611 27.2638 8.79501C27.4627 8.9939 27.5745 9.26365 27.5745 9.54493C27.5745 9.82621 27.4627 10.096 27.2638 10.2949C27.0649 10.4938 26.7952 10.6055 26.5139 10.6055H1.06056C0.779279 10.6055 0.509523 10.4938 0.31063 10.2949C0.111737 10.096 0 9.82621 0 9.54493Z" fill="white"/>
<path d="M17.2804 0.310163C17.4792 0.111556 17.7488 0 18.0298 0C18.3109 0 18.5804 0.111556 18.7793 0.310163L27.2638 8.79461C27.4624 8.99347 27.5739 9.26303 27.5739 9.54408C27.5739 9.82512 27.4624 10.0947 27.2638 10.2935L18.7793 18.778C18.5783 18.9653 18.3123 19.0673 18.0376 19.0625C17.7628 19.0576 17.5007 18.9463 17.3064 18.752C17.1121 18.5577 17.0007 18.2955 16.9959 18.0208C16.9911 17.746 17.093 17.4801 17.2804 17.2791L25.0154 9.54408L17.2804 1.80908C17.0818 1.61023 16.9702 1.34067 16.9702 1.05962C16.9702 0.778575 17.0818 0.509018 17.2804 0.310163Z" fill="white"/>
</svg>
