<svg width="32" height="32" viewBox="0 0 32 32" fill="none" xmlns="http://www.w3.org/2000/svg">
<path d="M9.33333 21.7331C12.2667 21.7331 14.6667 19.2931 14.6667 16.3331C14.6667 14.7864 13.9067 13.3197 12.3867 12.0797C10.8667 10.8397 9.72 8.99974 9.33333 7.06641C8.94667 8.99974 7.81333 10.8531 6.28 12.0797C4.74667 13.3064 4 14.7997 4 16.3331C4 19.2931 6.4 21.7331 9.33333 21.7331Z" stroke="#4FACF5" stroke-width="2.66667" stroke-linecap="round" stroke-linejoin="round"/>
<path d="M16.7468 8.7997C17.6638 7.33453 18.3139 5.71843 18.6668 4.02637C19.3335 7.3597 21.3335 10.5597 24.0001 12.693C26.6668 14.8264 28.0001 17.3597 28.0001 20.0264C28.0077 21.8694 27.4679 23.6732 26.4492 25.2092C25.4304 26.7451 23.9785 27.9439 22.2776 28.6537C20.5767 29.3635 18.7033 29.5522 16.895 29.1961C15.0867 28.8399 13.4248 27.9548 12.1201 26.653" stroke="#4FACF5" stroke-width="2.66667" stroke-linecap="round" stroke-linejoin="round"/>
</svg>
