<svg width="32" height="32" viewBox="0 0 32 32" fill="none" xmlns="http://www.w3.org/2000/svg">
<path d="M13.2491 20.6663C13.1301 20.2049 12.8895 19.7838 12.5526 19.4469C12.2156 19.1099 11.7945 18.8694 11.3331 18.7503L3.15309 16.641C3.01353 16.6014 2.8907 16.5173 2.80324 16.4016C2.71578 16.2859 2.66846 16.1448 2.66846 15.9997C2.66846 15.8546 2.71578 15.7135 2.80324 15.5978C2.8907 15.482 3.01353 15.398 3.15309 15.3583L11.3331 13.2477C11.7944 13.1288 12.2153 12.8884 12.5523 12.5517C12.8892 12.215 13.1298 11.7942 13.2491 11.333L15.3584 3.15301C15.3976 3.01291 15.4816 2.88947 15.5975 2.80154C15.7134 2.71361 15.8549 2.66602 16.0004 2.66602C16.1459 2.66602 16.2874 2.71361 16.4033 2.80154C16.5192 2.88947 16.6032 3.01291 16.6424 3.15301L18.7504 11.333C18.8695 11.7944 19.11 12.2155 19.4469 12.5525C19.7839 12.8895 20.205 13.13 20.6664 13.249L28.8464 15.357C28.9871 15.3958 29.1111 15.4797 29.1995 15.5958C29.2879 15.7119 29.3358 15.8538 29.3358 15.9997C29.3358 16.1456 29.2879 16.2875 29.1995 16.4036C29.1111 16.5197 28.9871 16.6035 28.8464 16.6423L20.6664 18.7503C20.205 18.8694 19.7839 19.1099 19.4469 19.4469C19.11 19.7838 18.8695 20.2049 18.7504 20.6663L16.6411 28.8463C16.6019 28.9865 16.5179 29.1099 16.402 29.1978C16.2861 29.2858 16.1446 29.3333 15.9991 29.3333C15.8536 29.3333 15.7121 29.2858 15.5962 29.1978C15.4803 29.1099 15.3963 28.9865 15.3571 28.8463L13.2491 20.6663Z" stroke="#4FACF5" stroke-width="2.66667" stroke-linecap="round" stroke-linejoin="round"/>
<path d="M26.6665 4V9.33333" stroke="#4FACF5" stroke-width="2.66667" stroke-linecap="round" stroke-linejoin="round"/>
<path d="M29.3333 6.66699H24" stroke="#4FACF5" stroke-width="2.66667" stroke-linecap="round" stroke-linejoin="round"/>
<path d="M5.3335 22.667V25.3337" stroke="#4FACF5" stroke-width="2.66667" stroke-linecap="round" stroke-linejoin="round"/>
<path d="M6.66667 24H4" stroke="#4FACF5" stroke-width="2.66667" stroke-linecap="round" stroke-linejoin="round"/>
</svg>
