<svg width="16" height="16" viewBox="0 0 16 16" fill="none" xmlns="http://www.w3.org/2000/svg">
      <path
        d="M12.5361 2.25104C12.8709 1.91632 13.4142 1.91632 13.749 2.25104C14.0837 2.58575 14.0837 3.12914 13.749 3.46386L3.46386 13.749C3.12914 14.0837 2.58575 14.0837 2.25104 13.749C1.91632 13.4142 1.91632 12.8709 2.25104 12.5361L12.5361 2.25104Z"
        fill="currentColor"
      />
      <path
        d="M2.25104 2.25104C2.58575 1.91632 3.12914 1.91632 3.46386 2.25104L13.749 12.5361C14.0837 12.8709 14.0837 13.4142 13.749 13.749C13.4142 14.0837 12.8709 14.0837 12.5361 13.749L2.25104 3.46386C1.91632 3.12914 1.91632 2.58575 2.25104 2.25104Z"
        fill="currentColor"
      />
    </svg>
