<svg width="24" height="24" viewBox="0 0 24 24" fill="none" xmlns="http://www.w3.org/2000/svg">
      <path
        d="M19 10C19 8.14348 18.2629 6.36256 16.9502 5.0498C15.6374 3.73705 13.8565 3 12 3C10.1435 3 8.36256 3.73705 7.0498 5.0498C5.73705 6.36256 5 8.14348 5 10C5 12.1593 6.21679 14.4871 7.79785 16.5645C9.32566 18.5717 11.0795 20.1963 12 20.9951C12.9205 20.1963 14.6743 18.5717 16.2021 16.5645C17.7832 14.4871 19 12.1593 19 10Z"
        stroke="currentColor"
        stroke-width="2"
        stroke-linecap="round"
        stroke-linejoin="round"
      />
      <path
        d="M12 12.5C13.3807 12.5 14.5 11.3807 14.5 10C14.5 8.61929 13.3807 7.5 12 7.5C10.6193 7.5 9.5 8.61929 9.5 10C9.5 11.3807 10.6193 12.5 12 12.5Z"
        stroke="currentColor"
        stroke-width="2"
      />
    </svg>
