<svg width="24" height="24" viewBox="0 0 24 24" fill="none" xmlns="http://www.w3.org/2000/svg">
      <path
        d="M7 1H4C2.34315 1 1 2.34315 1 4V7C1 8.65685 2.34315 10 4 10H7C8.65685 10 10 8.65685 10 7V4C10 2.34315 8.65685 1 7 1Z"
        stroke="currentColor"
        stroke-width="2"
      />
      <path
        d="M20 1H17C15.3431 1 14 2.34315 14 4V7C14 8.65685 15.3431 10 17 10H20C21.6569 10 23 8.65685 23 7V4C23 2.34315 21.6569 1 20 1Z"
        stroke="currentColor"
        stroke-width="2"
      />
      <path
        d="M7 14H4C2.34315 14 1 15.3431 1 17V20C1 21.6569 2.34315 23 4 23H7C8.65685 23 10 21.6569 10 20V17C10 15.3431 8.65685 14 7 14Z"
        stroke="currentColor"
        stroke-width="2"
      />
      <path
        d="M20 14H17C15.3431 14 14 15.3431 14 17V20C14 21.6569 15.3431 23 17 23H20C21.6569 23 23 21.6569 23 20V17C23 15.3431 21.6569 14 20 14Z"
        stroke="currentColor"
        stroke-width="2"
      />
    </svg>
