<svg width="24" height="24" viewBox="0 0 24 24" fill="none" xmlns="http://www.w3.org/2000/svg">
  <rect width="24" height="24" rx="5" fill="#4FACF5" />
  <path d="M9.33301 15.9188L5.41401 11.9998C5.22648 11.8123 4.97217 11.707 4.70701 11.707C4.44185 11.707 4.18754 11.8123 4.00001 11.9998C3.81254 12.1873 3.70721 12.4416 3.70721 12.7068C3.70721 12.972 3.81254 13.2263 4.00001 13.4138L7.91901 17.3328C8.10474 17.5186 8.32525 17.666 8.56795 17.7666C8.81066 17.8671 9.0708 17.9189 9.33351 17.9189C9.59622 17.9189 9.85636 17.8671 10.0991 17.7666C10.3418 17.666 10.5623 17.5186 10.748 17.3328L20 8.08081C20.1875 7.89328 20.2928 7.63897 20.2928 7.37381C20.2928 7.10865 20.1875 6.85434 20 6.66681C19.8125 6.47934 19.5582 6.37402 19.293 6.37402C19.0278 6.37402 18.7735 6.47934 18.586 6.66681L9.33301 15.9188Z" fill="white" />
</svg>
