<svg width="19" height="18" viewBox="0 0 19 18" fill="none" xmlns="http://www.w3.org/2000/svg">
      <path
        d="M8.50097 0.662878C8.78815 -0.220961 10.0385 -0.220959 10.3257 0.66288L11.8902 5.47799C12.0187 5.87325 12.387 6.14087 12.8026 6.14087H17.8655C18.7948 6.14087 19.1812 7.33006 18.4294 7.87631L14.3334 10.8522C13.9972 11.0965 13.8565 11.5295 13.9849 11.9248L15.5495 16.7399C15.8366 17.6237 14.825 18.3587 14.0732 17.8124L9.97722 14.8365C9.64099 14.5922 9.1857 14.5922 8.84946 14.8365L4.75349 17.8124C4.00165 18.3587 2.99006 17.6237 3.27724 16.7399L4.84176 11.9248C4.97019 11.5295 4.8295 11.0965 4.49326 10.8522L0.397287 7.87631C-0.354551 7.33006 0.0318445 6.14087 0.961167 6.14087H6.02407C6.43968 6.14087 6.80802 5.87325 6.93645 5.47799L8.50097 0.662878Z"
        fill="#4FACF5"
      />
    </svg>
