<svg width="32" height="32" viewBox="0 0 32 32" fill="none" xmlns="http://www.w3.org/2000/svg">
      <path
        d="M27.6364 5.81818C27.6364 4.21153 26.334 2.90909 24.7274 2.90909C23.1207 2.90909 21.8183 4.21153 21.8183 5.81818C21.8183 7.42482 23.1207 8.72727 24.7274 8.72727C26.334 8.72727 27.6364 7.42482 27.6364 5.81818ZM30.5455 5.81818C30.5455 9.03147 27.9406 11.6364 24.7274 11.6364C21.5141 11.6364 18.9092 9.03147 18.9092 5.81818C18.9092 2.60489 21.5141 0 24.7274 0C27.9406 0 30.5455 2.60489 30.5455 5.81818Z"
        fill="currentColor"
      />
      <path
        d="M10.1823 15.9998C10.1823 14.3932 8.8799 13.0907 7.27326 13.0907C5.66661 13.0907 4.36417 14.3932 4.36417 15.9998C4.36417 17.6065 5.66661 18.9089 7.27326 18.9089C8.8799 18.9089 10.1823 17.6065 10.1823 15.9998ZM13.0914 15.9998C13.0914 19.2131 10.4865 21.818 7.27326 21.818C4.05996 21.818 1.45508 19.2131 1.45508 15.9998C1.45508 12.7865 4.05996 10.1816 7.27326 10.1816C10.4865 10.1816 13.0914 12.7865 13.0914 15.9998Z"
        fill="currentColor"
      />
      <path
        d="M27.6364 26.1815C27.6364 24.5748 26.334 23.2724 24.7274 23.2724C23.1207 23.2724 21.8183 24.5748 21.8183 26.1815C21.8183 27.7881 23.1207 29.0905 24.7274 29.0905C26.334 29.0905 27.6364 27.7881 27.6364 26.1815ZM30.5455 26.1815C30.5455 29.3947 27.9406 31.9996 24.7274 31.9996C21.5141 31.9996 18.9092 29.3947 18.9092 26.1815C18.9092 22.9682 21.5141 20.3633 24.7274 20.3633C27.9406 20.3633 30.5455 22.9682 30.5455 26.1815Z"
        fill="currentColor"
      />
      <path
        d="M9.78397 17.4634C10.1885 16.7696 11.08 16.5348 11.774 16.9392L21.7073 22.729C22.4012 23.1334 22.637 24.0236 22.2328 24.7176C21.8284 25.4117 20.9368 25.6462 20.2428 25.2418L10.3081 19.4534C9.61428 19.0489 9.37957 18.1574 9.78397 17.4634Z"
        fill="currentColor"
      />
      <path
        d="M20.2277 6.75907C20.9215 6.35435 21.8115 6.58805 22.2164 7.2818C22.6211 7.97545 22.3871 8.86542 21.6936 9.27043L11.7732 15.0602C11.0796 15.4648 10.1896 15.2307 9.78455 14.5375C9.37966 13.8437 9.61346 12.9523 10.3073 12.5474L20.2277 6.75907Z"
        fill="currentColor"
      />
    </svg>
