<svg width="32" height="32" viewBox="0 0 32 32" fill="none" xmlns="http://www.w3.org/2000/svg">
      <path
        d="M10.6673 29.3327C11.4037 29.3327 12.0007 28.7357 12.0007 27.9993C12.0007 27.263 11.4037 26.666 10.6673 26.666C9.93094 26.666 9.33398 27.263 9.33398 27.9993C9.33398 28.7357 9.93094 29.3327 10.6673 29.3327Z"
        stroke="#4FACF5"
        stroke-width="2.66667"
        stroke-linecap="round"
        stroke-linejoin="round"
      />
      <path
        d="M25.3333 29.3327C26.0697 29.3327 26.6667 28.7357 26.6667 27.9993C26.6667 27.263 26.0697 26.666 25.3333 26.666C24.597 26.666 24 27.263 24 27.9993C24 28.7357 24.597 29.3327 25.3333 29.3327Z"
        stroke="#4FACF5"
        stroke-width="2.66667"
        stroke-linecap="round"
        stroke-linejoin="round"
      />
      <path
        d="M2.7334 2.73242H5.40007L8.94673 19.2924C9.07684 19.8989 9.41429 20.4411 9.90101 20.8256C10.3877 21.2101 10.9933 21.4129 11.6134 21.3991H24.6534C25.2603 21.3981 25.8487 21.1901 26.3214 20.8095C26.7942 20.4289 27.1229 19.8985 27.2534 19.3058L29.4534 9.39909H6.82673"
        stroke="#4FACF5"
        stroke-width="2.66667"
        stroke-linecap="round"
        stroke-linejoin="round"
      />
    </svg>
