<svg width="32" height="32" viewBox="0 0 32 32" fill="none" xmlns="http://www.w3.org/2000/svg">
      <path
        d="M10.6673 29.3327C11.4037 29.3327 12.0007 28.7357 12.0007 27.9993C12.0007 27.263 11.4037 26.666 10.6673 26.666C9.93094 26.666 9.33398 27.263 9.33398 27.9993C9.33398 28.7357 9.93094 29.3327 10.6673 29.3327Z"
        stroke="#4FACF5"
        stroke-width="2.66667"
        stroke-linecap="round"
        stroke-linejoin="round"
      />
      <path
        d="M25.3333 29.3327C26.0697 29.3327 26.6667 28.7357 26.6667 27.9993C26.6667 27.263 26.0697 26.666 25.3333 26.666C24.597 26.666 24 27.263 24 27.9993C24 28.7357 24.597 29.3327 25.3333 29.3327Z"
        stroke="#4FACF5"
        stroke-width="2.66667"
        stroke-linecap="round"
        stroke-linejoin="round"
      />
      <path
        d="M2.73328 2.7334H5.39994L8.94661 19.2934C9.07671 19.8999 9.41417 20.442 9.90089 20.8265C10.3876 21.2111 10.9932 21.4139 11.6133 21.4001H24.6533C25.2602 21.3991 25.8486 21.1911 26.3213 20.8105C26.794 20.4299 27.1228 19.8994 27.2533 19.3067L29.4533 9.40006H6.82661"
        stroke="#4FACF5"
        stroke-width="2.66667"
        stroke-linecap="round"
        stroke-linejoin="round"
      />
    </svg>
