<svg width="26" height="26" viewBox="0 0 26 26" fill="none" xmlns="http://www.w3.org/2000/svg">
  <path d="M12.769 0C12.5085 0 12.2587 0.10346 12.0746 0.28762C11.8904 0.47178 11.787 0.721555 11.787 0.981997V24.5499C11.787 24.8104 11.8904 25.0601 12.0746 25.2443C12.2587 25.4285 12.5085 25.5319 12.769 25.5319C13.0294 25.5319 13.2792 25.4285 13.4633 25.2443C13.6475 25.0601 13.751 24.8104 13.751 24.5499V0.981997C13.751 0.721555 13.6475 0.47178 13.4633 0.28762C13.2792 0.10346 13.0294 0 12.769 0Z" fill="currentColor" />
  <path d="M4.2192 16.0001C4.03531 16.1842 3.93202 16.4338 3.93202 16.694C3.93202 16.9543 4.03531 17.2038 4.2192 17.388L12.0751 25.2439C12.2593 25.4278 12.5089 25.5311 12.7691 25.5311C13.0293 25.5311 13.2789 25.4278 13.463 25.2439L21.319 17.388C21.4925 17.2018 21.5869 16.9556 21.5824 16.7012C21.5779 16.4468 21.4749 16.2041 21.2949 16.0241C21.115 15.8442 20.8723 15.7412 20.6179 15.7367C20.3635 15.7322 20.1173 15.8266 19.9311 16.0001L12.7691 23.1621L5.60709 16.0001C5.42297 15.8162 5.17338 15.7129 4.91315 15.7129C4.65292 15.7129 4.40333 15.8162 4.2192 16.0001Z" fill="currentColor" />
</svg>
