<svg width="32" height="32" viewBox="0 0 32 32" fill="none" xmlns="http://www.w3.org/2000/svg">
      <path
        d="M31.9253 16.892L27.884 5.34533C27.324 3.74267 25.8053 2.66533 24.108 2.66533H17.3333V1.33333C17.3333 0.597333 16.7373 0 16 0C15.2627 0 14.6667 0.597333 14.6667 1.33333V2.66667H7.892C6.19467 2.66667 4.676 3.744 4.116 5.34533L0.0746667 16.892C0.0253333 17.0333 0 17.7347 0 17.7347C0 21.076 2.49467 23.824 5.68 23.9907C7.33467 24.0827 8.92533 23.496 10.1307 22.352C11.32 21.224 12 19.6373 12 18C12 18 11.972 17.024 11.9187 16.8773L7.72533 5.344C7.78 5.33733 7.836 5.33333 7.892 5.33333H14.6667V29.3333H6.66667C5.92933 29.3333 5.33333 29.9307 5.33333 30.6667C5.33333 31.4027 5.92933 32 6.66667 32H25.3333C26.0707 32 26.6667 31.4027 26.6667 30.6667C26.6667 29.9307 26.0707 29.3333 25.3333 29.3333H17.3333V5.33333H24.108C24.164 5.33333 24.22 5.336 24.2747 5.344L20.08 16.8773C20.0267 17.0227 19.9987 18 19.9987 18C19.9987 19.6387 20.68 21.224 21.868 22.352C22.9947 23.4213 24.3053 23.9907 26.32 23.9907C29.508 23.9907 31.9987 21.076 31.9987 17.7347C31.9987 17.7347 31.9747 17.0333 31.9253 16.892ZM5.81867 21.3293C4.37733 21.2533 3.17067 20.1267 2.79733 18.6667H9.26667C9.13333 19.332 8.8 19.9387 8.29467 20.4173C7.62533 21.0533 6.74267 21.376 5.82 21.328L5.81867 21.3293ZM8.76267 16H3.212L5.93467 8.22267L8.76267 16ZM26.0653 8.22267L28.788 16H23.2373L26.0653 8.22267ZM26.1827 21.3293C25.2653 21.3773 24.3773 21.0547 23.7067 20.4187C23.2013 19.9387 22.868 19.332 22.7347 18.668H29.204C28.8307 20.1267 27.6253 21.2547 26.184 21.3307L26.1827 21.3293Z"
        fill="currentColor"
      />
    </svg>
