<svg width="17" height="17" viewBox="0 0 17 17" fill="none" xmlns="http://www.w3.org/2000/svg">
      <path d="M9.27397 16.3656H6.65349C6.21579 16.3656 5.85972 16.0096 5.85972 15.5718V9.6612H4.33087C3.89315 9.6612 3.53711 9.305 3.53711 8.8674V6.33468C3.53711 5.89695 3.89315 5.54092 4.33087 5.54092H5.85972V4.27261C5.85972 3.01504 6.25459 1.94513 7.00153 1.1787C7.75186 0.408807 8.80045 0.00195312 10.0339 0.00195312L12.0324 0.00521307C12.4694 0.00594815 12.8248 0.362017 12.8248 0.798945V3.15055C12.8248 3.58824 12.4689 3.94431 12.0313 3.94431L10.6857 3.94479C10.2753 3.94479 10.1708 4.02706 10.1485 4.05227C10.1117 4.09414 10.0679 4.21233 10.0679 4.5388V5.54082H11.9302C12.0704 5.54082 12.2062 5.5754 12.3229 5.64054C12.5748 5.78126 12.7313 6.04729 12.7313 6.33481L12.7303 8.86756C12.7303 9.305 12.3742 9.66107 11.9365 9.66107H10.0678V15.5718C10.0679 16.0096 9.7117 16.3656 9.27397 16.3656ZM6.81901 15.4063H9.10842V9.23175C9.10842 8.9395 9.34626 8.70178 9.63838 8.70178H11.771L11.7719 6.50027H9.63825C9.34614 6.50027 9.10842 6.26258 9.10842 5.9703V4.53884C9.10842 4.16407 9.14651 3.73785 9.42939 3.41748C9.77124 3.03022 10.3099 2.98554 10.6855 2.98554L11.8655 2.98502V0.964244L10.0332 0.961271C8.05085 0.961271 6.81904 2.23019 6.81904 4.27264V5.97027C6.81904 6.26239 6.58132 6.50023 6.28917 6.50023H4.49643V8.70175H6.28917C6.58132 8.70175 6.81904 8.93947 6.81904 9.23172L6.81901 15.4063Z" fill="white" />
    </svg>
