<svg width="17" height="17" viewBox="0 0 17 17" fill="none" xmlns="http://www.w3.org/2000/svg">
      <path d="M9.91237 14.7873C9.93828 14.8518 9.98331 14.9069 10.0414 14.9451C10.0995 14.9833 10.168 15.0029 10.2375 15.0011C10.307 14.9993 10.3744 14.9763 10.4304 14.9352C10.4865 14.894 10.5287 14.8367 10.5512 14.7709L14.9831 1.81635C15.0049 1.75593 15.009 1.69056 14.9951 1.62786C14.9811 1.56517 14.9495 1.50775 14.9041 1.46233C14.8587 1.41691 14.8013 1.38537 14.7386 1.37139C14.6759 1.35741 14.6105 1.36157 14.5501 1.38339L1.59556 5.81521C1.52976 5.83778 1.47244 5.87993 1.43129 5.93601C1.39014 5.99209 1.36713 6.05942 1.36535 6.12896C1.36357 6.19849 1.3831 6.26691 1.42132 6.32502C1.45955 6.38314 1.51464 6.42817 1.57919 6.45407L6.98601 8.62226C7.15693 8.69069 7.31223 8.79302 7.44253 8.92309C7.57284 9.05317 7.67545 9.20828 7.74419 9.37907L9.91237 14.7873Z" stroke="white" stroke-width="1.36364" stroke-linecap="round" stroke-linejoin="round" />
      <path d="M14.9005 1.4668L7.44141 8.92521" stroke="white" stroke-width="1.36364" stroke-linecap="round" stroke-linejoin="round" />
    </svg>
