<svg width="108" height="48" viewBox="0 0 108 48" fill="none" xmlns="http://www.w3.org/2000/svg">
      <path d="M23.7679 0.308594L13.9574 22.8231H9.84139L0 0.308594H4.53385L12.0309 17.678L19.5899 0.308594H23.7679Z" fill="#4FACF5" />
      <path d="M24.5723 12.209H33.4156V15.5513H24.5723V12.209Z" fill="#4FACF5" />
      <path d="M58.2128 0.308594V22.8231H54.7699L42.3521 7.58132V22.8231H38.2051V0.308594H41.648L54.0658 15.5504V0.308594H58.2128Z" fill="#4FACF5" />
      <path d="M78.9929 22.8231L74.3972 16.2312C74.2038 16.2544 73.9175 16.2622 73.5307 16.2622H68.4475V22.8231H64.2695V0.308594H73.5307C75.4804 0.308594 77.1825 0.633545 78.6293 1.27571C80.0761 1.91788 81.1825 2.83857 81.9562 4.04554C82.7299 5.24476 83.1167 6.6761 83.1167 8.32406C83.1167 10.0185 82.7067 11.473 81.8788 12.6954C81.051 13.9179 79.8672 14.8308 78.3276 15.4266L83.5036 22.8231H78.9929ZM77.4765 5.00492C76.5326 4.23122 75.1477 3.84437 73.3295 3.84437H68.4397V12.8192H73.3295C75.1554 12.8192 76.5326 12.4246 77.4765 11.6432C78.4204 10.8618 78.8924 9.74766 78.8924 8.31633C78.8924 6.87725 78.4204 5.77087 77.4765 5.00492Z" fill="#4FACF5" />
      <path d="M103.149 11.3114H107.102V20.2863C105.942 21.207 104.595 21.9188 103.048 22.4062C101.501 22.8936 99.9146 23.1489 98.2898 23.1489C95.9919 23.1489 93.9262 22.6538 92.0848 21.6557C90.2434 20.6576 88.7966 19.2805 87.7444 17.5242C86.6921 15.7679 86.166 13.7795 86.166 11.5745C86.166 9.36943 86.6921 7.38104 87.7444 5.62476C88.7966 3.86847 90.2511 2.4913 92.1002 1.49323C93.9571 0.495164 96.0384 0 98.3517 0C100.24 0 101.957 0.309477 103.497 0.936169C105.044 1.55512 106.336 2.46808 107.388 3.66731L104.75 6.24371C103.033 4.52611 100.967 3.66731 98.5451 3.66731C96.959 3.66731 95.5509 4 94.313 4.66537C93.0828 5.33075 92.1157 6.25919 91.4194 7.46615C90.7231 8.66537 90.3749 10.0425 90.3749 11.5822C90.3749 13.0832 90.7231 14.4371 91.4194 15.6364C92.1157 16.8356 93.0828 17.7795 94.313 18.4681C95.5432 19.1567 96.9436 19.4971 98.5064 19.4971C100.263 19.4971 101.81 19.1102 103.141 18.3366V11.3114H103.149Z" fill="#4FACF5" />
      <path d="M42.623 33.5623H43.7449V35.1638C44.1859 34.5526 44.6965 34.0961 45.2768 33.7944C45.8494 33.4926 46.4993 33.3379 47.2033 33.3379C48.4412 33.3379 49.5012 33.7866 50.3832 34.6764C51.2652 35.5661 51.7062 36.6416 51.7062 37.8949C51.7062 39.1793 51.2729 40.2625 50.3987 41.1599C49.5244 42.0574 48.4722 42.4984 47.242 42.4984C46.5457 42.4984 45.9112 42.3514 45.331 42.0652C44.7507 41.7789 44.2246 41.3456 43.7526 40.7731V45.4617H42.6308V33.5623H42.623ZM47.1105 34.4211C46.1434 34.4211 45.3232 34.7615 44.6579 35.4346C43.9925 36.1077 43.6598 36.951 43.6598 37.9646C43.6598 38.6222 43.8068 39.218 44.1008 39.7518C44.3948 40.2779 44.8203 40.6957 45.3697 41.0052C45.919 41.3147 46.4993 41.4694 47.1182 41.4694C47.7217 41.4694 48.2865 41.3147 48.8126 41.0052C49.3387 40.6957 49.7642 40.2547 50.0815 39.6976C50.3987 39.1406 50.5534 38.5526 50.5534 37.9414C50.5534 37.3224 50.3987 36.7344 50.0892 36.1851C49.7797 35.628 49.3619 35.2025 48.8281 34.893C48.3097 34.5758 47.7294 34.4211 47.1105 34.4211Z" fill="white" />
      <path d="M53.3709 33.5623H54.516V34.8389C54.8564 34.336 55.2201 33.9647 55.5992 33.7171C55.9783 33.4695 56.3729 33.3457 56.7829 33.3457C57.0924 33.3457 57.4251 33.4463 57.7733 33.6397L57.1853 34.5836C56.9531 34.483 56.752 34.4289 56.5895 34.4289C56.2181 34.4289 55.8545 34.5836 55.5063 34.8931C55.1582 35.2026 54.8951 35.6745 54.7094 36.3244C54.5702 36.8196 54.5005 37.8254 54.5005 39.3341V42.2819H53.3555V33.5623H53.3709Z" fill="white" />
      <path d="M62.856 33.3379C64.2022 33.3379 65.3086 33.8253 66.1906 34.7924C66.9952 35.6822 67.3975 36.7267 67.3975 37.9414C67.3975 39.1561 66.972 40.2238 66.1287 41.1367C65.2776 42.0497 64.1944 42.5062 62.856 42.5062C61.5175 42.5062 60.4266 42.0497 59.5755 41.1367C58.7244 40.2238 58.3066 39.1638 58.3066 37.9414C58.3066 36.7344 58.709 35.6899 59.5136 34.8002C60.3956 33.8253 61.5097 33.3379 62.856 33.3379ZM62.856 34.4365C61.9198 34.4365 61.1229 34.777 60.4498 35.4733C59.7767 36.1619 59.444 36.9975 59.444 37.9723C59.444 38.599 59.5987 39.187 59.9004 39.7363C60.2022 40.2779 60.62 40.7035 61.1384 40.9975C61.6567 41.2915 62.2293 41.4385 62.8482 41.4385C63.4672 41.4385 64.0397 41.2915 64.5581 40.9975C65.0765 40.7035 65.4943 40.2779 65.796 39.7363C66.0977 39.1948 66.2525 38.6067 66.2525 37.9723C66.2525 36.9975 65.9198 36.1619 65.2467 35.4733C64.5813 34.7847 63.7767 34.4365 62.856 34.4365Z" fill="white" />
      <path d="M66.9479 48.0005H42.6307C39.0872 48.0005 36.2168 45.1301 36.2168 41.5866V35.0643C36.2168 31.5208 39.0872 28.6504 42.6307 28.6504H66.9479C70.4914 28.6504 73.3618 31.5208 73.3618 35.0643V41.5866C73.3618 45.1301 70.4914 48.0005 66.9479 48.0005Z" stroke="white" stroke-width="0.773694" stroke-miterlimit="10" />
    </svg>
