<svg width="20" height="20" viewBox="0 0 20 20" fill="none" xmlns="http://www.w3.org/2000/svg">
      <path
        d="M6.24117 3.83331C6.55945 3.83331 6.85411 4.00692 7.01075 4.28614L8.31757 6.61612C8.47047 6.88867 8.45162 7.22514 8.2693 7.47903L7.12897 9.06736C7.95122 10.7619 9.2381 12.0488 10.9327 12.871L12.521 11.7307C12.7749 11.5484 13.1113 11.5295 13.3839 11.6824L15.7139 12.9892C15.9931 13.1459 16.1667 13.4405 16.1667 13.7588V15.5C16.1667 15.9602 15.7935 16.3333 15.3333 16.3333H14.5C8.8851 16.3333 3.66669 11.1149 3.66669 5.49998V4.66665C3.66669 4.20641 4.03979 3.83331 4.50002 3.83331H6.24117Z"
        stroke="white"
        stroke-width="1.4"
        stroke-linejoin="round"
      />
    </svg>
