<svg width="17" height="17" viewBox="0 0 17 17" fill="none" xmlns="http://www.w3.org/2000/svg">
      <path d="M11.5925 1.36523H4.77433C2.89154 1.36523 1.36523 2.89154 1.36523 4.77433V11.5925C1.36523 13.4753 2.89154 15.0016 4.77433 15.0016H11.5925C13.4753 15.0016 15.0016 13.4753 15.0016 11.5925V4.77433C15.0016 2.89154 13.4753 1.36523 11.5925 1.36523Z" stroke="white" stroke-width="1.36364" stroke-linecap="round" stroke-linejoin="round" />
      <path d="M10.9094 7.75301C10.9936 8.32045 10.8966 8.89998 10.6324 9.40916C10.3682 9.91834 9.95021 10.3312 9.43781 10.5892C8.92541 10.8471 8.34473 10.9368 7.77837 10.8457C7.21201 10.7546 6.68881 10.4872 6.28318 10.0815C5.87755 9.6759 5.61015 9.1527 5.51902 8.58634C5.42788 8.01998 5.51765 7.4393 5.77556 6.9269C6.03346 6.4145 6.44637 5.99647 6.95555 5.73227C7.46473 5.46806 8.04426 5.37114 8.6117 5.45528C9.19051 5.54111 9.72637 5.81083 10.1401 6.22458C10.5539 6.63834 10.8236 7.1742 10.9094 7.75301Z" stroke="white" stroke-width="1.36364" stroke-linecap="round" stroke-linejoin="round" />
      <path d="M11.9316 4.43262H11.9377" stroke="white" stroke-width="1.36364" stroke-linecap="round" stroke-linejoin="round" />
    </svg>
