<svg width="24" height="24" viewBox="0 0 24 24" fill="none" xmlns="http://www.w3.org/2000/svg">
      <path d="M21 16.92V19.92C21.0011 20.1981 20.9442 20.4733 20.8329 20.7282C20.7217 20.983 20.5585 21.2121 20.3534 21.4005C20.1484 21.5888 19.9062 21.7322 19.6424 21.8214C19.3787 21.9107 19.0992 21.9437 18.822 21.918C15.7391 21.5828 12.7717 20.5186 10.164 18.81C7.73864 17.2792 5.68075 15.2214 4.15 12.796C2.43796 10.1763 1.37344 7.19458 1.042 4.09603C1.01699 3.82048 1.05041 3.54273 1.14008 3.28098C1.22975 3.01924 1.37371 2.77898 1.56287 2.57572C1.75202 2.37246 1.98205 2.21073 2.23783 2.1011C2.4936 1.99146 2.7695 1.93626 3.048 1.93903H6.048C6.53563 1.93424 7.00734 2.10622 7.37711 2.42316C7.74688 2.74009 7.98867 3.18074 8.057 3.66403C8.18424 4.63258 8.42145 5.58364 8.765 6.49803C8.90148 6.86093 8.93094 7.25549 8.8499 7.63452C8.76886 8.01355 8.5808 8.36146 8.308 8.63603L7.04 9.90403C8.46112 12.4052 10.5218 14.4659 13.023 15.887L14.291 14.619C14.5656 14.3462 14.9135 14.1582 15.2925 14.0771C15.6716 13.9961 16.0661 14.0256 16.429 14.162C17.3434 14.5056 18.2945 14.7428 19.263 14.87C19.7515 14.939 20.1961 15.1851 20.5139 15.5607C20.8317 15.9364 21.0013 16.4152 21 16.92Z" stroke="currentColor" stroke-width="1.6" stroke-linecap="round" stroke-linejoin="round" />
    </svg>
