<svg width="18" height="18" viewBox="0 0 18 18" fill="none" xmlns="http://www.w3.org/2000/svg">
  <g clip-path="url(#clip0)">
    <path d="M7.60091 0.106707C9.63443 -0.21367 11.7166 0.173052 13.4997 1.20187C13.891 1.42773 14.0248 1.92806 13.799 2.31941C13.5731 2.71047 13.0727 2.84451 12.6815 2.61877C11.2227 1.77716 9.51918 1.46071 7.85552 1.72282C6.19185 1.98499 4.66813 2.80964 3.53879 4.0591C2.40938 5.30864 1.74313 6.90823 1.64995 8.58997C1.55686 10.2716 2.04305 11.9343 3.02743 13.3009C4.01187 14.6674 5.43517 15.6552 7.05972 16.0995C8.68426 16.5437 10.4121 16.418 11.9549 15.7426C13.4978 15.0672 14.762 13.8829 15.5377 12.3879C16.3133 10.8928 16.5536 9.17714 16.2173 7.52676C16.1271 7.084 16.4127 6.6518 16.8555 6.56157C17.2981 6.47137 17.7303 6.75709 17.8207 7.1997C18.2317 9.21669 17.9386 11.3139 16.9908 13.1411C16.0428 14.9683 14.4969 16.416 12.6112 17.2415C10.7253 18.0671 8.61288 18.2214 6.62719 17.6783C4.64167 17.1352 2.90211 15.9278 1.69896 14.2575C0.495812 12.5873 -0.098067 10.5547 0.0157287 8.49941C0.129616 6.44396 0.944988 4.48902 2.32537 2.9618C3.70567 1.43483 5.56763 0.427111 7.60091 0.106707Z" fill="#4FACF5"/>
    <path d="M15.9697 2.46967C16.2626 2.17678 16.7373 2.17678 17.0302 2.46967C17.3231 2.76256 17.3231 3.23732 17.0302 3.53022L9.53022 11.0302C9.38956 11.1709 9.19886 11.2499 8.99994 11.2499C8.80103 11.2499 8.61032 11.1709 8.46967 11.0302L6.21967 8.78022C5.92678 8.48732 5.92678 8.01256 6.21967 7.71967C6.51256 7.42678 6.98732 7.42678 7.28022 7.71967L8.99994 9.4394L15.9697 2.46967Z" fill="#4FACF5"/>
  </g>
  <defs>
    <clipPath id="clip0">
      <rect width="18" height="18" fill="white"/>
    </clipPath>
  </defs>
</svg>
