<svg width="32" height="32" viewBox="0 0 32 32" fill="none" xmlns="http://www.w3.org/2000/svg">
      <path
        d="M23.2733 10.1817C23.2733 8.25281 22.5065 6.40311 21.1426 5.03918C19.7787 3.67525 17.929 2.90845 16.0001 2.90845C14.0712 2.90845 12.2215 3.67525 10.8575 5.03918C9.49361 6.40312 8.72681 8.25281 8.72681 10.1817C8.72681 11.3515 8.92868 12.6899 10.4825 14.2439C11.5825 15.3439 12.6894 16.7567 13.0628 18.6237C13.2204 19.4113 12.7095 20.1781 11.9218 20.3357C11.1342 20.4932 10.3674 19.9823 10.2098 19.1947C10.0014 18.1527 9.36269 17.2375 8.42638 16.3012C6.19865 14.0734 5.81836 11.921 5.81836 10.1817C5.81836 7.48125 6.89081 4.89147 8.80032 2.98196C10.7098 1.07245 13.2996 0 16.0001 0C18.7005 0 21.2903 1.07245 23.1998 2.98196C25.1093 4.89147 26.1818 7.48125 26.1818 10.1817C26.1818 12.4086 25.3337 14.6856 23.5738 16.3012C22.5064 17.3686 22.0012 18.1404 21.7903 19.1947C21.6327 19.9823 20.866 20.4932 20.0783 20.3357C19.2907 20.1781 18.7797 19.4113 18.9373 18.6237C19.3083 16.769 20.2578 15.5037 21.5176 14.2439L21.573 14.1917C22.6838 13.1919 23.2733 11.713 23.2733 10.1817Z"
        fill="#4FACF5"
      />
      <path
        d="M20.3653 23.2734C21.1686 23.2734 21.8195 23.9243 21.8195 24.7277C21.8195 25.531 21.1686 26.1819 20.3653 26.1819H11.6378C10.8345 26.1819 10.1836 25.531 10.1836 24.7277C10.1836 23.9243 10.8345 23.2734 11.6378 23.2734H20.3653Z"
        fill="#4FACF5"
      />
      <path
        d="M18.9089 29.0918C19.7122 29.0918 20.3642 29.7427 20.3642 30.546C20.3642 31.3494 19.7122 32.0002 18.9089 32.0002H13.0909C12.2876 32.0002 11.6367 31.3494 11.6367 30.546C11.6367 29.7427 12.2876 29.0918 13.0909 29.0918H18.9089Z"
        fill="#4FACF5"
      />
    </svg>
