<svg width="18" height="18" viewBox="0 0 17 17" fill="none" xmlns="http://www.w3.org/2000/svg">
      <path d="M8.5 2.3C5.2 2.3 2.6 4.9 2.6 8.1C2.6 9.3 3 10.4 3.7 11.4L3 14.4L6.1 13.6C6.9 14.1 7.7 14.3 8.5 14.3C11.8 14.3 14.4 11.7 14.4 8.5C14.4 5.3 11.8 2.3 8.5 2.3Z" stroke="currentColor" stroke-width="1.3" stroke-linecap="round" stroke-linejoin="round" />
      <path d="M6.6 6.2C6.8 5.9 7 5.9 7.2 5.9C7.4 5.9 7.6 6 7.7 6.3L8.2 7.4C8.3 7.6 8.2 7.8 8.1 7.9L7.7 8.3C8.1 9 8.7 9.6 9.4 10L9.8 9.6C9.9 9.5 10.1 9.4 10.3 9.5L11.4 10C11.7 10.1 11.8 10.3 11.8 10.5C11.8 10.7 11.7 10.9 11.4 11.1C11.1 11.3 10.8 11.4 10.5 11.4C9.1 11.3 6.9 9.1 6.7 7.7C6.6 7.3 6.6 6.8 6.6 6.2Z" fill="currentColor" />
    </svg>
