<svg width="32" height="32" viewBox="0 0 32 32" fill="none" xmlns="http://www.w3.org/2000/svg">
<path d="M29.3332 16.0003H26.0265C25.4438 15.9991 24.8767 16.1887 24.412 16.5403C23.9473 16.8918 23.6105 17.3859 23.4532 17.947L20.3198 29.0937C20.2996 29.1629 20.2575 29.2237 20.1998 29.267C20.1421 29.3103 20.072 29.3337 19.9998 29.3337C19.9277 29.3337 19.8575 29.3103 19.7998 29.267C19.7421 29.2237 19.7 29.1629 19.6798 29.0937L12.3198 2.90699C12.2996 2.83775 12.2575 2.77693 12.1998 2.73366C12.1421 2.69038 12.072 2.66699 11.9998 2.66699C11.9277 2.66699 11.8575 2.69038 11.7998 2.73366C11.7421 2.77693 11.7 2.83775 11.6798 2.90699L8.5465 14.0537C8.38979 14.6125 8.05501 15.105 7.59299 15.4563C7.13097 15.8077 6.56693 15.9987 5.9865 16.0003H2.6665" stroke="#4FACF5" stroke-width="2.66667" stroke-linecap="round" stroke-linejoin="round"/>
</svg>
