<svg width="108" height="49" viewBox="0 0 108 49" fill="none" xmlns="http://www.w3.org/2000/svg">
<path d="M23.7679 0.30957L13.9574 22.8241H9.84139L0 0.30957H4.53385L12.0309 17.679L19.5899 0.30957H23.7679Z" fill="#00A7E7"/>
<path d="M24.5723 12.209H33.4156V15.5513H24.5723V12.209Z" fill="#00A7E7"/>
<path d="M58.2128 0.30957V22.8241H54.7699L42.3521 7.58229V22.8241H38.2051V0.30957H41.648L54.0658 15.5513V0.30957H58.2128Z" fill="#00A7E7"/>
<path d="M78.9939 22.8241L74.3982 16.2322C74.2047 16.2554 73.9185 16.2631 73.5316 16.2631H68.4485V22.8241H64.2705V0.30957H73.5316C75.4813 0.30957 77.1835 0.634522 78.6303 1.27669C80.0771 1.91885 81.1835 2.83955 81.9572 4.04651C82.7308 5.24574 83.1177 6.67707 83.1177 8.32504C83.1177 10.0194 82.7076 11.474 81.8798 12.6964C81.0519 13.9188 79.8682 14.8318 78.3285 15.4276L83.5045 22.8241H78.9939ZM77.4775 5.00589C76.5336 4.2322 75.1486 3.84535 73.3305 3.84535H68.4407V12.8202H73.3305C75.1564 12.8202 76.5336 12.4256 77.4775 11.6442C78.4214 10.8628 78.8933 9.74864 78.8933 8.3173C78.8933 6.87823 78.4214 5.77185 77.4775 5.00589Z" fill="#00A7E7"/>
<path d="M103.149 11.3114H107.102V20.2863C105.942 21.207 104.595 21.9188 103.048 22.4062C101.501 22.8936 99.9146 23.1489 98.2898 23.1489C95.9919 23.1489 93.9262 22.6538 92.0848 21.6557C90.2434 20.6576 88.7966 19.2805 87.7444 17.5242C86.6921 15.7679 86.166 13.7795 86.166 11.5745C86.166 9.36943 86.6921 7.38104 87.7444 5.62476C88.7966 3.86847 90.2511 2.4913 92.1002 1.49323C93.9571 0.495164 96.0384 0 98.3517 0C100.24 0 101.957 0.309477 103.497 0.936169C105.044 1.55512 106.336 2.46808 107.388 3.66731L104.75 6.24371C103.033 4.52611 100.967 3.66731 98.5451 3.66731C96.959 3.66731 95.5509 4 94.313 4.66537C93.0828 5.33075 92.1157 6.25919 91.4194 7.46615C90.7231 8.66537 90.3749 10.0425 90.3749 11.5822C90.3749 13.0832 90.7231 14.4371 91.4194 15.6364C92.1157 16.8356 93.0828 17.7795 94.313 18.4681C95.5432 19.1567 96.9436 19.4971 98.5064 19.4971C100.263 19.4971 101.81 19.1102 103.141 18.3366V11.3114H103.149Z" fill="#00A7E7"/>
<path d="M42.623 33.5632H43.7449V35.1648C44.1859 34.5536 44.6965 34.0971 45.2768 33.7953C45.8494 33.4936 46.4993 33.3389 47.2033 33.3389C48.4412 33.3389 49.5012 33.7876 50.3832 34.6774C51.2652 35.5671 51.7062 36.6425 51.7062 37.8959C51.7062 39.1803 51.2729 40.2634 50.3987 41.1609C49.5244 42.0584 48.4722 42.4994 47.242 42.4994C46.5457 42.4994 45.9112 42.3524 45.331 42.0661C44.7507 41.7799 44.2246 41.3466 43.7526 40.7741V45.4627H42.6308V33.5632H42.623ZM47.1105 34.422C46.1434 34.422 45.3232 34.7625 44.6579 35.4356C43.9925 36.1087 43.6598 36.952 43.6598 37.9656C43.6598 38.6232 43.8068 39.2189 44.1008 39.7528C44.3948 40.2789 44.8203 40.6967 45.3697 41.0062C45.919 41.3156 46.4993 41.4704 47.1182 41.4704C47.7217 41.4704 48.2865 41.3156 48.8126 41.0062C49.3387 40.6967 49.7642 40.2557 50.0815 39.6986C50.3987 39.1416 50.5534 38.5536 50.5534 37.9423C50.5534 37.3234 50.3987 36.7354 50.0892 36.1861C49.7797 35.629 49.3619 35.2035 48.8281 34.894C48.3097 34.5768 47.7294 34.422 47.1105 34.422Z" fill="#010202"/>
<path d="M53.37 33.5633H54.515V34.8399C54.8555 34.337 55.2191 33.9656 55.5982 33.7181C55.9773 33.4705 56.3719 33.3467 56.782 33.3467C57.0914 33.3467 57.4241 33.4473 57.7723 33.6407L57.1843 34.5846C56.9522 34.484 56.751 34.4299 56.5885 34.4299C56.2172 34.4299 55.8535 34.5846 55.5054 34.8941C55.1572 35.2035 54.8941 35.6755 54.7085 36.3254C54.5692 36.8206 54.4996 37.8264 54.4996 39.3351V42.2828H53.3545V33.5633H53.37Z" fill="#010202"/>
<path d="M62.855 33.3389C64.2012 33.3389 65.3076 33.8263 66.1896 34.7934C66.9942 35.6832 67.3966 36.7276 67.3966 37.9423C67.3966 39.157 66.971 40.2247 66.1277 41.1377C65.2766 42.0507 64.1935 42.5071 62.855 42.5071C61.5165 42.5071 60.4256 42.0507 59.5745 41.1377C58.7235 40.2247 58.3057 39.1648 58.3057 37.9423C58.3057 36.7354 58.708 35.6909 59.5126 34.8011C60.3946 33.8263 61.5088 33.3389 62.855 33.3389ZM62.855 34.4375C61.9188 34.4375 61.1219 34.7779 60.4488 35.4743C59.7757 36.1628 59.443 36.9984 59.443 37.9733C59.443 38.6 59.5977 39.188 59.8995 39.7373C60.2012 40.2789 60.619 40.7044 61.1374 40.9984C61.6558 41.2924 62.2283 41.4394 62.8472 41.4394C63.4662 41.4394 64.0387 41.2924 64.5571 40.9984C65.0755 40.7044 65.4933 40.2789 65.795 39.7373C66.0968 39.1957 66.2515 38.6077 66.2515 37.9733C66.2515 36.9984 65.9188 36.1628 65.2457 35.4743C64.5803 34.7857 63.7757 34.4375 62.855 34.4375Z" fill="#010202"/>
<path d="M66.9479 48.0005H42.6307C39.0872 48.0005 36.2168 45.1301 36.2168 41.5866V35.0643C36.2168 31.5208 39.0872 28.6504 42.6307 28.6504H66.9479C70.4914 28.6504 73.3618 31.5208 73.3618 35.0643V41.5866C73.3618 45.1301 70.4914 48.0005 66.9479 48.0005Z" stroke="#010202" stroke-width="0.773694" stroke-miterlimit="10"/>
</svg>
