<svg width="32" height="32" viewBox="0 0 32 32" fill="none" xmlns="http://www.w3.org/2000/svg">
      <path
        d="M29.8103 7.81056C30.1941 7.80926 30.5717 7.90922 30.9045 8.10034C31.1959 8.26777 31.4447 8.49971 31.6311 8.77792L31.7067 8.89937L31.7749 9.02615C31.9229 9.32605 31.9997 9.65672 31.9997 9.99245V21.9151C31.9994 22.3097 31.8925 22.6974 31.6897 23.0359C31.4868 23.3742 31.1957 23.6508 30.848 23.837C30.5001 24.0233 30.1076 24.1116 29.7134 24.0927C29.3195 24.0738 28.938 23.9489 28.6096 23.7305L28.6086 23.7294L21.0114 18.6646C20.343 18.219 20.1622 17.3163 20.6076 16.6479C21.0532 15.9795 21.956 15.7987 22.6244 16.2441L29.0912 20.5546V11.2571L22.5509 15.0743C21.8571 15.479 20.9667 15.2448 20.5618 14.5512C20.1569 13.8573 20.391 12.9659 21.0849 12.5611L28.7183 8.1078C29.0498 7.91438 29.4266 7.81193 29.8103 7.81056Z"
        fill="#4FACF5"
      />
      <path
        d="M20.3636 10.1821C20.3636 9.37879 19.7127 8.72684 18.9094 8.72684H4.36378C3.56043 8.72684 2.90848 9.37879 2.90848 10.1821V21.8182C2.90848 22.6215 3.56043 23.2735 4.36378 23.2735H18.9094C19.7127 23.2735 20.3636 22.6215 20.3636 21.8182V10.1821ZM23.2731 21.8182C23.2731 24.2282 21.3194 26.182 18.9094 26.182H4.36378C1.95373 26.182 0 24.2282 0 21.8182V10.1821C0 7.77209 1.95373 5.81836 4.36378 5.81836H18.9094C21.3194 5.81836 23.2731 7.77209 23.2731 10.1821V21.8182Z"
        fill="#4FACF5"
      />
    </svg>
