<svg width="32" height="32" viewBox="0 0 32 32" fill="none" xmlns="http://www.w3.org/2000/svg">
      <path
        d="M17.7735 4.36368C17.7735 3.97791 17.6201 3.60734 17.3473 3.33455C17.0745 3.06178 16.704 2.90841 16.3182 2.90841H15.679C15.2932 2.90841 14.9226 3.06178 14.6499 3.33455C14.3771 3.60734 14.2237 3.97791 14.2237 4.36368V4.62683C14.2229 5.39194 14.0206 6.14305 13.6378 6.80547C13.2555 7.46682 12.7062 8.01565 12.0451 8.39818L11.4208 8.76253L11.4165 8.76466C10.7532 9.14762 10.0006 9.34953 9.23467 9.34953C8.4847 9.3495 7.74853 9.15461 7.09544 8.78703V8.78809L6.87811 8.67197C6.86388 8.66438 6.84946 8.65659 6.83549 8.64853C6.50173 8.456 6.10509 8.40412 5.73285 8.50364C5.36061 8.60318 5.04281 8.84671 4.84968 9.18014L4.84861 9.17908L4.53007 9.732C4.33841 10.0654 4.28694 10.461 4.38625 10.8325C4.47336 11.1583 4.66995 11.4427 4.9413 11.6379L5.06168 11.7157L5.13945 11.7636L5.35785 11.9096H5.35678C5.9808 12.2877 6.50235 12.8142 6.86958 13.4458C7.25228 14.1041 7.45517 14.8513 7.45979 15.6127L7.46086 15.6213H7.45979V16.3574C7.46284 17.1262 7.26321 17.8823 6.88024 18.5489C6.50106 19.2086 5.95488 19.7566 5.29819 20.1405L5.29925 20.1416L5.08086 20.2726C5.07457 20.2764 5.06802 20.2806 5.06168 20.2843C4.72862 20.4774 4.48583 20.7946 4.38625 21.1664C4.28686 21.5381 4.33826 21.9345 4.53007 22.268L4.84968 22.8199C5.04281 23.1533 5.3606 23.3968 5.73285 23.4964C6.10506 23.5958 6.50176 23.5429 6.83549 23.3504L6.87811 23.327L7.09544 23.2108C7.74834 22.8435 8.48499 22.6505 9.23467 22.6505C10.0005 22.6505 10.7532 22.8514 11.4165 23.2343L11.4208 23.2375L12.0461 23.6008H12.0451C12.7062 23.9832 13.2554 24.5322 13.6378 25.1935C14.0207 25.856 14.2229 26.6079 14.2237 27.3732V27.6363C14.2237 28.0219 14.3773 28.3916 14.6499 28.6644C14.9226 28.9372 15.2932 29.0905 15.679 29.0905H16.3182C16.704 29.0905 17.0745 28.9372 17.3473 28.6644C17.6199 28.3916 17.7735 28.0219 17.7735 27.6363V27.3732C17.7743 26.6079 17.9765 25.856 18.3594 25.1935C18.7416 24.5325 19.2903 23.9832 19.9511 23.6008L20.5764 23.2375L20.5807 23.2343C21.2439 22.8514 21.9967 22.6505 22.7625 22.6505C23.5119 22.6505 24.248 22.8438 24.9007 23.2108L25.1191 23.327C25.1332 23.3345 25.1478 23.3424 25.1617 23.3504C25.4954 23.5429 25.8921 23.5958 26.2643 23.4964C26.6366 23.3968 26.9544 23.1533 27.1475 22.8199L27.4586 22.2669L27.466 22.2552L27.5321 22.1274C27.6698 21.8228 27.698 21.4783 27.6109 21.1526C27.5124 20.7841 27.2733 20.4695 26.9451 20.2758L26.7619 20.1778C26.7476 20.1702 26.7332 20.1624 26.7192 20.1543C26.0533 19.7699 25.5001 19.2155 25.1169 18.5489C24.734 17.8823 24.5343 17.1262 24.5374 16.3574V15.6362C24.5354 14.8692 24.7348 14.1151 25.1169 13.4501C25.496 12.7905 26.0415 12.2424 26.6979 11.8584L26.9163 11.7274L26.9355 11.7157C27.2688 11.5225 27.5114 11.2047 27.6109 10.8325C27.7102 10.461 27.6588 10.0654 27.4671 9.732L27.1475 9.17908V9.18014C26.9544 8.84671 26.6366 8.60318 26.2643 8.50364C25.8921 8.40413 25.4954 8.45601 25.1617 8.64853C25.1477 8.65659 25.1333 8.66438 25.1191 8.67197L24.9017 8.78809L24.9007 8.78703C24.2478 9.15432 23.5122 9.3495 22.7625 9.34953C21.9966 9.34953 21.244 9.14762 20.5807 8.76466L20.5764 8.76253L19.9511 8.39924V8.39818C19.2903 8.01567 18.7415 7.46656 18.3594 6.80547C17.9765 6.14305 17.7743 5.39194 17.7735 4.62683V4.36368ZM20.6819 4.62363C20.6821 4.87871 20.7503 5.12936 20.8779 5.3502C21.0055 5.57091 21.1887 5.75432 21.4095 5.88181L21.4138 5.88394L22.0381 6.24616C22.2586 6.37286 22.5082 6.44006 22.7625 6.44006C23.0177 6.44002 23.2681 6.37265 23.4891 6.2451C23.5032 6.23694 23.5184 6.22934 23.5328 6.22166L23.7501 6.10554C24.7425 5.54747 25.9142 5.39892 27.0154 5.69324C28.0624 5.97322 28.9659 6.6318 29.552 7.53737L29.6649 7.72168L29.9845 8.27459L29.9856 8.27672C30.5632 9.27805 30.72 10.4679 30.4213 11.5846C30.1245 12.6942 29.4015 13.64 28.411 14.2203L28.4121 14.2214L28.1947 14.3524C28.1878 14.3566 28.1805 14.3611 28.1734 14.3652C27.9515 14.4934 27.7674 14.6778 27.6397 14.9C27.512 15.1222 27.4448 15.3745 27.4458 15.6309V16.3691C27.4448 16.6255 27.512 16.8778 27.6397 17.1C27.7663 17.3202 27.9488 17.5026 28.1681 17.6305L28.3482 17.7275L28.3929 17.752C29.3931 18.3313 30.1226 19.2839 30.4213 20.4004C30.7187 21.5126 30.5638 22.6968 29.992 23.6956L29.6724 24.2634C29.6697 24.2682 29.6677 24.2736 29.6649 24.2783C29.0855 25.2786 28.1321 26.0081 27.0154 26.3068C25.9141 26.6011 24.7426 26.4516 23.7501 25.8934L23.5328 25.7783C23.5184 25.7707 23.5032 25.762 23.4891 25.7538C23.2681 25.6264 23.0176 25.5589 22.7625 25.5589C22.5088 25.5589 22.2593 25.6256 22.0391 25.7517L21.4138 26.1161L21.4095 26.1182C21.1887 26.2457 21.0055 26.429 20.8779 26.6498C20.7503 26.8706 20.6821 27.1213 20.6819 27.3764V27.6363C20.6819 28.7935 20.2227 29.9033 19.4045 30.7216C18.5862 31.5399 17.4755 32 16.3182 32H15.679C14.5217 32 13.411 31.5399 12.5927 30.7216C11.7745 29.9033 11.3153 28.7935 11.3153 27.6363V27.3764L11.3025 27.1857C11.2775 26.9973 11.215 26.8154 11.1193 26.6498C10.9917 26.429 10.8085 26.2457 10.5877 26.1182L10.5834 26.1161L9.95804 25.7517H9.95698C9.73707 25.6259 9.48809 25.5589 9.23467 25.5589C8.97961 25.5589 8.72903 25.6264 8.5081 25.7538C8.49397 25.762 8.47881 25.7707 8.46442 25.7783L8.24709 25.8945L8.24602 25.8934C7.25372 26.4512 6.08274 26.601 4.98178 26.3068C3.86507 26.0081 2.91164 25.2786 2.33225 24.2783V24.2773L2.01264 23.7254L2.01158 23.7233C1.43396 22.722 1.27723 21.5321 1.57585 20.4154C1.87261 19.3057 2.59452 18.3579 3.5851 17.7775L3.80243 17.6476L3.82374 17.6348C4.04563 17.5067 4.22977 17.3221 4.35748 17.1C4.4852 16.8778 4.55239 16.6255 4.55138 16.3691V15.6309L4.53753 15.4412C4.5118 15.254 4.44983 15.073 4.35429 14.9085C4.2267 14.6891 4.04358 14.506 3.82374 14.3791C3.7968 14.3635 3.76973 14.3473 3.74384 14.3301L3.54888 14.199C2.57738 13.6169 1.86896 12.6803 1.57585 11.5846C1.27723 10.4679 1.43396 9.27805 2.01158 8.27672L2.01264 8.27459L2.33225 7.72168L2.44517 7.53737C3.03132 6.6318 3.93475 5.97322 4.98178 5.69324C6.08265 5.399 7.25376 5.54784 8.24602 6.10554H8.24709L8.46442 6.22166C8.47881 6.22934 8.49397 6.23694 8.5081 6.2451C8.72911 6.37265 8.97949 6.44002 9.23467 6.44006C9.48869 6.44006 9.73775 6.37256 9.95804 6.24616L10.5834 5.88394L10.5877 5.88181C10.8085 5.75432 10.9916 5.57091 11.1193 5.3502C11.2468 5.12966 11.3149 4.87942 11.3153 4.6247V4.36368C11.3153 3.20636 11.7743 2.09571 12.5927 1.27736C13.411 0.459021 14.5217 0 15.679 0H16.3182C17.4755 0 18.5862 0.459023 19.4045 1.27736C20.2229 2.09571 20.6819 3.20636 20.6819 4.36368V4.62363Z"
        fill="#4FACF5"
      />
      <path
        d="M18.911 15.9995C18.911 14.3929 17.6081 13.0901 16.0015 13.0901C14.3948 13.0901 13.092 14.3929 13.092 15.9995C13.092 17.6062 14.3948 18.909 16.0015 18.909C17.6081 18.909 18.911 17.6062 18.911 15.9995ZM21.8194 15.9995C21.8194 19.2129 19.2148 21.8174 16.0015 21.8174C12.7882 21.8174 10.1836 19.2129 10.1836 15.9995C10.1836 12.7862 12.7882 10.1816 16.0015 10.1816C19.2148 10.1816 21.8194 12.7862 21.8194 15.9995Z"
        fill="#4FACF5"
      />
    </svg>
